<svg width="150" height="350" viewBox="0 0 150 350" fill="none" xmlns="http://www.w3.org/2000/svg">
<path d="M150 50V100L125 125L150 150V200L100 250H0V0H100L150 50ZM50 200H100V150H50V200ZM50 100H100V50H50V100Z" fill="#989898"/>
<path d="M100 150H150V250H100V150Z" fill="#989898"/>
<path d="M50 200H100V250H50V200Z" fill="#989898"/>
<path d="M25 25L0 50V0L25 25Z" fill="#676767"/>
<path d="M25 125L50 100V150L25 125Z" fill="#676767"/>
<path d="M125 125L100 100H150L125 125Z" fill="#676767"/>
<path d="M25 25L50 0V50L25 25Z" fill="#676767"/>
<path d="M25 225L50 200V250L25 225Z" fill="#676767"/>
<path d="M25 125L0 150V100L25 125Z" fill="#676767"/>
<path d="M100 50H150V100H100V50Z" fill="#676767"/>
<path d="M25 225L0 250V200L25 225Z" fill="#676767"/>
<path d="M150 350L100 300V250L150 200V350Z" fill="#676767"/>
</svg>