<svg width="150" height="350" viewBox="0 0 150 350" fill="none" xmlns="http://www.w3.org/2000/svg">
<path d="M150 49.71V100L125 125L150 150V199.711L99.7109 250H0V0H100.289L150 49.71ZM50 200H100V150H50V200ZM50 100H100V50H50V100Z" fill="#989898"/>
<path d="M24.999 24.999L0 49.999V0L24.999 24.999Z" fill="#676767"/>
<path d="M25 125L49.999 100L49.999 149.999L25 125Z" fill="#676767"/>
<path d="M125 124.999L100 100H149.999L125 124.999Z" fill="#676767"/>
<path d="M25 25L49.999 0L49.999 49.999L25 25Z" fill="#676767"/>
<path d="M25 225L49.999 200L49.999 249.999L25 225Z" fill="#676767"/>
<path d="M25 225L49.999 200L49.999 249.999L25 225Z" fill="#676767"/>
<path d="M24.999 124.999L0 149.999V100L24.999 124.999Z" fill="#676767"/>
<path d="M100 50H150V100H100V50Z" fill="#676767"/>
<path d="M24.999 224.999L0 249.999V200L24.999 224.999Z" fill="#676767"/>
<path d="M100 150H150V250H100V150Z" fill="#989898"/>
<path d="M50 200H100V250H50V200Z" fill="#989898"/>
<path d="M150 350L100 299.999V250.002L150 200.002V350Z" fill="#676767"/>
</svg>

